REM DIRINDEX 1\2\4,1\2\5,1\2\6,1\3\7,1\3\8,1\3\9,1\3\10
REM DIRNAME folder01,folder02,folder03,folder04,folder05,folder06,folder07,folder08,folder09,folder10
TITLE ""
FILE "a_108.mp3" MP3
  TRACK 01 AUDIO
    TITLE "0:"
    INDEX 01 00:00:00
  TRACK 02 AUDIO
    TITLE "4:cjc057_01404"
    INDEX 01 00:00:11
  TRACK 03 AUDIO
    TITLE "0:"
    INDEX 01 00:01:17
  TRACK 04 AUDIO
    TITLE "5:cjc057_01405"
    INDEX 01 00:01:46
  TRACK 05 AUDIO
    TITLE "0:"
    INDEX 01 00:04:29
  TRACK 06 AUDIO
    TITLE "4:cjc057_01406"
    INDEX 01 00:05:34
  TRACK 07 AUDIO
    TITLE "0:"
    INDEX 01 00:06:45
  TRACK 08 AUDIO
    TITLE "5:cjc057_01407"
    INDEX 01 00:06:73
  TRACK 09 AUDIO
    TITLE "0:"
    INDEX 01 00:09:65
  TRACK 10 AUDIO
    TITLE "4:cjc057_01408"
    INDEX 01 00:10:70
  TRACK 11 AUDIO
    TITLE "0:"
    INDEX 01 00:12:05
  TRACK 12 AUDIO
    TITLE "5:cjc057_01409"
    INDEX 01 00:12:34
  TRACK 13 AUDIO
    TITLE "0:"
    INDEX 01 00:16:55
  TRACK 14 AUDIO
    TITLE "4:cjc057_01410"
    INDEX 01 00:17:57
  TRACK 15 AUDIO
    TITLE "0:"
    INDEX 01 00:18:68
  TRACK 16 AUDIO
    TITLE "5:cjc057_01411"
    INDEX 01 00:19:22
  TRACK 17 AUDIO
    TITLE "0:"
    INDEX 01 00:23:12
  TRACK 18 AUDIO
    TITLE "4:cjc057_01412"
    INDEX 01 00:24:18
  TRACK 19 AUDIO
    TITLE "0:"
    INDEX 01 00:25:29
  TRACK 20 AUDIO
    TITLE "5:cjc057_01413"
    INDEX 01 00:25:58
  TRACK 21 AUDIO
    TITLE "0:"
    INDEX 01 00:27:61
  TRACK 22 AUDIO
    TITLE "4:cjc057_01414"
    INDEX 01 00:28:68
  TRACK 23 AUDIO
    TITLE "0:"
    INDEX 01 00:30:12
  TRACK 24 AUDIO
    TITLE "5:cjc057_01415"
    INDEX 01 00:30:40
  TRACK 25 AUDIO
    TITLE "0:"
    INDEX 01 00:32:41
  TRACK 26 AUDIO
    TITLE "4:cjc057_01416"
    INDEX 01 00:33:48
  TRACK 27 AUDIO
    TITLE "0:"
    INDEX 01 00:34:67
  TRACK 28 AUDIO
    TITLE "5:cjc057_01417"
    INDEX 01 00:35:23
  TRACK 29 AUDIO
    TITLE "0:"
    INDEX 01 00:42:02
  TRACK 30 AUDIO
    TITLE "4:cjc057_01418"
    INDEX 01 00:43:07
  TRACK 31 AUDIO
    TITLE "0:"
    INDEX 01 00:44:24
  TRACK 32 AUDIO
    TITLE "5:cjc057_01419"
    INDEX 01 00:44:54
  TRACK 33 AUDIO
    TITLE "0:"
    INDEX 01 00:46:68
  TRACK 34 AUDIO
    TITLE "4:cjc057_01420"
    INDEX 01 00:47:74
  TRACK 35 AUDIO
    TITLE "0:"
    INDEX 01 00:48:73
  TRACK 36 AUDIO
    TITLE "5:cjc057_01421"
    INDEX 01 00:49:29
  TRACK 37 AUDIO
    TITLE "0:"
    INDEX 01 00:51:56
  TRACK 38 AUDIO
    TITLE "4:cjc057_01422"
    INDEX 01 00:52:57
  TRACK 39 AUDIO
    TITLE "0:"
    INDEX 01 00:53:68
  TRACK 40 AUDIO
    TITLE "5:cjc057_01423"
    INDEX 01 00:54:23
  TRACK 41 AUDIO
    TITLE "0:"
    INDEX 01 00:56:33
  TRACK 42 AUDIO
    TITLE "4:cjc057_01424"
    INDEX 01 00:57:39
  TRACK 43 AUDIO
    TITLE "0:"
    INDEX 01 00:58:56
  TRACK 44 AUDIO
    TITLE "5:cjc057_01425"
    INDEX 01 00:59:10
  TRACK 45 AUDIO
    TITLE "0:"
    INDEX 01 01:00:29
  TRACK 46 AUDIO
    TITLE "4:cjc057_01426"
    INDEX 01 01:01:33
  TRACK 47 AUDIO
    TITLE "0:"
    INDEX 01 01:02:50
  TRACK 48 AUDIO
    TITLE "5:cjc057_01427"
    INDEX 01 01:03:06
  TRACK 49 AUDIO
    TITLE "0:"
    INDEX 01 01:06:34
  TRACK 50 AUDIO
    TITLE "4:cjc057_01428"
    INDEX 01 01:07:39
  TRACK 51 AUDIO
    TITLE "0:"
    INDEX 01 01:08:68
  TRACK 52 AUDIO
    TITLE "5:cjc057_01429"
    INDEX 01 01:09:24
  TRACK 53 AUDIO
    TITLE "0:"
    INDEX 01 01:11:43
  TRACK 54 AUDIO
    TITLE "4:cjc057_01430"
    INDEX 01 01:12:50
  TRACK 55 AUDIO
    TITLE "0:"
    INDEX 01 01:13:71
  TRACK 56 AUDIO
    TITLE "5:cjc057_01431"
    INDEX 01 01:14:27
  TRACK 57 AUDIO
    TITLE "0:"
    INDEX 01 01:17:67
  TRACK 58 AUDIO
    TITLE "4:cjc057_01432"
    INDEX 01 01:18:74
  TRACK 59 AUDIO
    TITLE "0:"
    INDEX 01 01:20:18
  TRACK 60 AUDIO
    TITLE "5:cjc057_01433"
    INDEX 01 01:20:44
  TRACK 61 AUDIO
    TITLE "0:"
    INDEX 01 01:22:48
  TRACK 62 AUDIO
    TITLE "4:cjc057_01434"
    INDEX 01 01:23:52
  TRACK 63 AUDIO
    TITLE "0:"
    INDEX 01 01:24:73
  TRACK 64 AUDIO
    TITLE "5:cjc057_01435"
    INDEX 01 01:25:29
  TRACK 65 AUDIO
    TITLE "0:"
    INDEX 01 01:27:63
  TRACK 66 AUDIO
    TITLE "4:cjc057_01436"
    INDEX 01 01:28:69
  TRACK 67 AUDIO
    TITLE "0:"
    INDEX 01 01:30:07
  TRACK 68 AUDIO
    TITLE "5:cjc057_01437"
    INDEX 01 01:30:38
  TRACK 69 AUDIO
    TITLE "0:"
    INDEX 01 01:32:62
  TRACK 70 AUDIO
    TITLE "4:cjc057_01438"
    INDEX 01 01:33:64
  TRACK 71 AUDIO
    TITLE "0:"
    INDEX 01 01:35:08
  TRACK 72 AUDIO
    TITLE "5:cjc057_01439"
    INDEX 01 01:35:39
  TRACK 73 AUDIO
    TITLE "0:"
    INDEX 01 01:37:56
  TRACK 74 AUDIO
    TITLE "4:cjc057_01440"
    INDEX 01 01:38:59
  TRACK 75 AUDIO
    TITLE "0:"
    INDEX 01 01:40:01
  TRACK 76 AUDIO
    TITLE "5:cjc057_01441"
    INDEX 01 01:40:31
  TRACK 77 AUDIO
    TITLE "0:"
    INDEX 01 01:43:70
  TRACK 78 AUDIO
    TITLE "4:cjc057_01442"
    INDEX 01 01:45:00
  TRACK 79 AUDIO
    TITLE "0:"
    INDEX 01 01:46:31
  TRACK 80 AUDIO
    TITLE "5:cjc057_01443"
    INDEX 01 01:46:61
  TRACK 81 AUDIO
    TITLE "0:"
    INDEX 01 01:48:65
  TRACK 82 AUDIO
    TITLE "4:cjc057_01444"
    INDEX 01 01:49:71
  TRACK 83 AUDIO
    TITLE "0:"
    INDEX 01 01:51:17
  TRACK 84 AUDIO
    TITLE "5:cjc057_01445"
    INDEX 01 01:51:44
  TRACK 85 AUDIO
    TITLE "0:"
    INDEX 01 01:53:41
  TRACK 86 AUDIO
    TITLE "4:cjc057_01446"
    INDEX 01 01:54:48
  TRACK 87 AUDIO
    TITLE "0:"
    INDEX 01 01:56:02
  TRACK 88 AUDIO
    TITLE "5:cjc057_01447"
    INDEX 01 01:56:32
  TRACK 89 AUDIO
    TITLE "0:"
    INDEX 01 01:58:52
  TRACK 90 AUDIO
    TITLE "4:cjc057_01448"
    INDEX 01 01:59:57
  TRACK 91 AUDIO
    TITLE "0:"
    INDEX 01 02:01:05
  TRACK 92 AUDIO
    TITLE "5:cjc057_01449"
    INDEX 01 02:01:33
  TRACK 93 AUDIO
    TITLE "0:"
    INDEX 01 02:04:66
  TRACK 94 AUDIO
    TITLE "4:cjc057_01450"
    INDEX 01 02:05:70
  TRACK 95 AUDIO
    TITLE "0:"
    INDEX 01 02:07:20
  TRACK 96 AUDIO
    TITLE "5:cjc057_01451"
    INDEX 01 02:07:49
  TRACK 97 AUDIO
    TITLE "0:"
    INDEX 01 02:10:10
  TRACK 98 AUDIO
    TITLE "4:cjc057_01452"
    INDEX 01 02:11:14
  TRACK 99 AUDIO
    TITLE "0:"
    INDEX 01 02:12:42
  TRACK 100 AUDIO
    TITLE "5:cjc057_01453"
    INDEX 01 02:12:72
  TRACK 101 AUDIO
    TITLE "0:"
    INDEX 01 02:16:26
  TRACK 102 AUDIO
    TITLE "4:cjc057_01454"
    INDEX 01 02:17:32
  TRACK 103 AUDIO
    TITLE "0:"
    INDEX 01 02:18:47
  TRACK 104 AUDIO
    TITLE "5:cjc057_01455"
    INDEX 01 02:18:72
  TRACK 105 AUDIO
    TITLE "0:"
    INDEX 01 02:20:05
